<svg xmlns="http://www.w3.org/2000/svg" width="1200" height="630" viewBox="0 0 1200 630"><rect width="1200" height="630" fill="#111311"/><g transform="translate(-116.02800000000002 27) scale(6)"><g id="brand" fill="#edece4"><circle cx="51.5" cy="44.5" r="1.5" fill="#eea28c"/><circle cx="58.5" cy="44.5" r="1.5" fill="#e4c782"/><circle cx="51.5" cy="51.5" r="1.5" fill="#9acbbb"/><circle cx="58.5" cy="51.5" r="1.5" fill="#b8ace1"/><path transform="translate(71 52.2) scale(.012 -.012)" d="M100 0L195 0L195 303L420 303L420 378L195 378L195 613L455 613L466 689L100 689Z"/><path transform="translate(79.19200000000001 52.2) scale(.012 -.012)" d="M346 623C464 623 536 542 536 344C536 144 462 66 346 66C234 66 156 144 156 343C156 542 231 623 346 623M346 701C174 701 55 570 55 343C55 112 174-12 346-12C519-12 637 116 637 344C637 576 519 701 346 701Z"/><path transform="translate(89.796 52.2) scale(.012 -.012)" d="M195 365L195 615L280 615C393 615 442 580 442 494C442 401 387 365 291 365M467 0L580 0L394 309C493 339 543 397 543 494C543 623 453 689 281 689L100 689L100 0L195 0L195 292L302 292Z"/><path transform="translate(99.35600000000001 52.2) scale(.012 -.012)" d="M659 689L530 689L392 188L247 689L119 689L62 0L152 0L175 304C183 405 188 512 188 593L345 78L434 78L583 592C584 535 591 419 600 311L624 0L716 0Z"/><path transform="translate(110.992 52.2) scale(.012 -.012)" d="M572 689L476 689L476 228C476 121 429 68 330 68C232 68 185 121 185 228L185 689L90 689L90 221C90 84 173-12 330-12C485-12 572 84 572 221Z"/><path transform="translate(121.236 52.2) scale(.012 -.012)" d="M195 689L100 689L100 0L467 0L478 83L195 83Z"/><path transform="translate(129.512 52.2) scale(.012 -.012)" d="M177 250L285 610L392 250M467 0L567 0L347 689L227 689L6 0L102 0L154 173L415 173Z"/><path transform="translate(144.688 52.2) scale(.012 -.012)" d="M341 701C185 701 55 578 55 345C55 113 176-12 343-12C436-12 502 26 540 65L493 125C454 96 411 68 346 68C239 68 156 146 156 345C156 553 243 623 347 623C395 623 437 607 480 572L532 633C477 677 428 701 341 701Z"/><path transform="translate(153.708 52.2) scale(.012 -.012)" d="M195 689L100 689L100 0L467 0L478 83L195 83Z"/><path transform="translate(161.984 52.2) scale(.012 -.012)" d="M346 623C464 623 536 542 536 344C536 144 462 66 346 66C234 66 156 144 156 343C156 542 231 623 346 623M346 701C174 701 55 570 55 343C55 112 174-12 346-12C519-12 637 116 637 344C637 576 519 701 346 701Z"/><path transform="translate(172.58800000000002 52.2) scale(.012 -.012)" d="M341 701C185 701 55 578 55 345C55 113 176-12 343-12C436-12 502 26 540 65L493 125C454 96 411 68 346 68C239 68 156 146 156 345C156 553 243 623 347 623C395 623 437 607 480 572L532 633C477 677 428 701 341 701Z"/><path transform="translate(181.60800000000003 52.2) scale(.012 -.012)" d="M570 689L462 689L200 368L472 0L589 0L309 374M195 689L100 689L100 0L195 0Z"/></g></g></svg>
